<svg width="20" height="22" viewBox="0 0 20 22" fill="none" xmlns="http://www.w3.org/2000/svg">
<path d="M4 10.7501C3.99997 9.63551 4.2453 8.53823 4.71408 7.55626C5.18287 6.57429 5.86051 5.7382 6.68651 5.12265C7.51251 4.5071 8.46115 4.13125 9.44773 4.02866C10.4343 3.92606 11.4281 4.09992 12.3404 4.5347C13.2527 4.96948 14.0551 5.65166 14.676 6.52031C15.2968 7.38897 15.7168 8.41707 15.8984 9.51281C16.08 10.6086 16.0175 11.7378 15.7166 12.7998C15.4157 13.8618 14.8857 14.8234 14.174 15.5988C13.971 15.8193 13.815 16.0488 13.721 16.2952L12.959 18.2853C12.9203 18.3862 12.8563 18.4721 12.7747 18.5325C12.6931 18.5928 12.5976 18.625 12.5 18.625C12.6326 18.625 12.7598 18.6843 12.8536 18.7898C12.9473 18.8953 13 19.0384 13 19.1875C13 19.3367 12.9473 19.4798 12.8536 19.5853C12.7598 19.6908 12.6326 19.75 12.5 19.75C12.6326 19.75 12.7598 19.8093 12.8536 19.9148C12.9473 20.0203 13 20.1633 13 20.3125C13 20.4617 12.9473 20.6048 12.8536 20.7103C12.7598 20.8158 12.6326 20.875 12.5 20.875L12.276 21.3779C12.193 21.5647 12.0654 21.7219 11.9075 21.8318C11.7496 21.9416 11.5677 21.9999 11.382 22H8.618C8.43234 21.9999 8.25037 21.9416 8.09248 21.8318C7.93458 21.7219 7.80699 21.5647 7.724 21.3779L7.5 20.875C7.36739 20.875 7.24022 20.8158 7.14645 20.7103C7.05268 20.6048 7 20.4617 7 20.3125C7 20.1633 7.05268 20.0203 7.14645 19.9148C7.24022 19.8093 7.36739 19.75 7.5 19.75C7.36739 19.75 7.24022 19.6908 7.14645 19.5853C7.05268 19.4798 7 19.3367 7 19.1875C7 19.0384 7.05268 18.8953 7.14645 18.7898C7.24022 18.6843 7.36739 18.625 7.5 18.625C7.40219 18.6252 7.30648 18.5931 7.22472 18.5328C7.14296 18.4724 7.07873 18.3863 7.04 18.2853L6.279 16.2941C6.17004 16.0311 6.01611 15.7949 5.826 15.5988C5.24763 14.9701 4.78783 14.2168 4.4741 13.3837C4.16036 12.5506 3.99912 11.6549 4 10.7501ZM10 5.1252C9.00417 5.12501 8.03096 5.45936 7.20512 6.08539C6.37927 6.71142 5.73841 7.60062 5.36466 8.63903C4.99091 9.67744 4.9013 10.8177 5.10732 11.9138C5.31334 13.0099 5.80559 14.0118 6.521 14.7911C6.784 15.0768 7.035 15.4256 7.197 15.8497L7.83 17.5001H12.172L12.804 15.8497C12.966 15.4256 13.217 15.0768 13.48 14.7911C14.1955 14.0117 14.6877 13.0097 14.8937 11.9135C15.0997 10.8174 15.01 9.67696 14.6362 8.63851C14.2623 7.60005 13.6213 6.71086 12.7953 6.08492C11.9693 5.45897 10.9959 5.12479 10 5.1252Z" fill="white"/>
<rect y="10" width="3" height="1.5" rx="0.75" fill="white"/>
<rect x="2" y="17.1213" width="3" height="1.5" rx="0.75" transform="rotate(-45 2 17.1213)" fill="white"/>
<rect x="15" y="4.12134" width="3" height="1.5" rx="0.75" transform="rotate(-45 15 4.12134)" fill="white"/>
<rect x="16.0607" y="15" width="3" height="1.5" rx="0.75" transform="rotate(45 16.0607 15)" fill="white"/>
<rect x="3.06067" y="2" width="3" height="1.5" rx="0.75" transform="rotate(45 3.06067 2)" fill="white"/>
<rect x="17" y="10" width="3" height="1.5" rx="0.75" fill="white"/>
<rect x="9" y="3" width="3" height="1.5" rx="0.75" transform="rotate(-90 9 3)" fill="white"/>
</svg>
